<svg id="exQHvqmZfga1" xmlns="http://www.w3.org/2000/svg" xmlns:xlink="http://www.w3.org/1999/xlink" viewBox="0 0 440 480" shape-rendering="geometricPrecision" text-rendering="geometricPrecision"><rect width="22.832556" height="267.714104" rx="0" ry="0" transform="translate(112.168794 106.142948)" fill="#d2dbed" stroke-width="0"/><ellipse rx="29.973553" ry="29.973553" transform="matrix(1.579878 0 0 1.579884 123.585072 349.947025)" fill="#d2dbed" stroke-width="0"/><rect width="22.832556" height="267.714104" rx="0" ry="0" transform="translate(308.583722 106.142948)" fill="#d2dbed" stroke-width="0"/><rect width="22.832556" height="267.714104" rx="0" ry="0" transform="matrix(.326149-.945318 0.575108 0.198421 170.939641 75.602912)" fill="#d2dbed" stroke-width="0"/><rect width="22.832556" height="267.714104" rx="0" ry="0" transform="matrix(.896034-.443986 0.118369 0.238888 163.433676 61.879564)" fill="#d2dbed" stroke-width="0"/><rect width="22.832556" height="267.714104" rx="0" ry="0" transform="matrix(-.314197-.949358 0.274092-.090713 172.250004 79.649028)" fill="#d2dbed" stroke-width="0"/><ellipse rx="29.973553" ry="29.973553" transform="matrix(1.579878 0 0 1.579884 123.585089 64.810894)" fill="#d2dbed" stroke-width="0"/><ellipse rx="29.973553" ry="29.973553" transform="matrix(1.579878 0 0 1.579884 320 349.947025)" fill="#d2dbed" stroke-width="0"/></svg>